<svg width="838" height="838" viewBox="0 0 838 838" fill="none" xmlns="http://www.w3.org/2000/svg">
<path d="M362.639 41.113C396.22 16.6167 441.78 16.6167 475.361 41.113L503.789 61.8497C520.206 73.8253 540.011 80.2604 560.332 80.2217L595.519 80.1547C637.086 80.0756 673.944 106.855 686.714 146.411L697.523 179.897C703.766 199.235 716.006 216.082 732.469 227.996L760.975 248.624C794.65 272.992 808.729 316.321 795.808 355.829L784.871 389.273C778.555 408.588 778.555 429.412 784.871 448.727L795.808 482.171C808.729 521.679 794.65 565.008 760.975 589.376L732.469 610.004C716.006 621.918 703.766 638.765 697.523 658.103L686.714 691.589C673.944 731.145 637.086 757.924 595.519 757.845L560.332 757.778C540.011 757.74 520.206 764.175 503.789 776.15L475.361 796.887C441.78 821.383 396.22 821.383 362.639 796.887L334.211 776.15C317.794 764.175 297.989 757.74 277.668 757.778L242.481 757.845C200.914 757.924 164.056 731.145 151.286 691.589L140.477 658.103C134.234 638.765 121.994 621.918 105.531 610.004L77.0247 589.376C43.3501 565.008 29.2715 521.679 42.1915 482.171L53.1287 448.727C59.445 429.412 59.445 408.588 53.1287 389.273L42.1915 355.829C29.2715 316.321 43.3501 272.992 77.0247 248.624L105.531 227.996C121.994 216.082 134.234 199.235 140.477 179.897L151.286 146.411C164.056 106.855 200.914 80.0756 242.481 80.1547L277.668 80.2217C297.989 80.2604 317.794 73.8253 334.211 61.8497L362.639 41.113Z" fill="#3F6E4F"/>
<path d="M272.007 557.75C171.721 468.455 179.964 233.54 255.521 145.619C283.698 167.599 297.652 186.155 321.462 244.531C365.469 228.804 399.143 229.347 417.003 229.417C434.895 229.345 468.514 228.842 512.416 244.531C536.226 186.156 550.181 167.599 578.357 145.62C653.915 233.541 662.157 468.456 561.872 557.751C557.835 527.966 544.013 517.912 517.911 517.912C489.062 517.912 468.456 531.65 436.859 571.489C422.874 576.515 414.277 576.45 397.02 571.489C365.423 531.649 344.816 517.911 315.967 517.911C289.865 517.911 276.043 527.966 272.007 557.75Z" fill="white"/>
<circle cx="513.79" cy="381.908" r="30.223" fill="#3F6E4F"/>
<circle cx="329.705" cy="381.908" r="30.223" fill="#3F6E4F"/>
<path d="M401.141 449.223C404.815 442.336 409.927 440.659 421.748 439.607C433.568 440.659 438.68 442.336 442.354 449.223C439.993 460.736 434.997 464.256 421.748 467.082C408.499 464.256 403.503 460.736 401.141 449.223Z" fill="#3F6E4F" stroke="white" stroke-width="3.41561"/>
<path d="M373.343 570.115C394.395 595.13 385.707 620.944 369.222 618.197C383.347 625.186 385.681 629.541 370.596 638.803C395.528 645.768 399.445 656.662 363.727 684.138C329.382 708.866 300.533 708.866 295.038 680.017C290.917 644.299 304.655 631.935 301.907 616.823C297.786 585.226 279.591 571.039 285.422 555.003C296.412 524.781 331.121 527.613 373.343 570.115Z" fill="white"/>
<path d="M467.082 618.197C450.596 620.944 441.908 595.13 462.96 570.115C505.183 527.613 539.891 524.781 550.882 555.003C556.713 571.039 538.518 585.226 534.396 616.823C531.649 631.935 545.387 644.299 541.265 680.017C535.77 708.866 506.921 708.866 472.577 684.138C436.859 656.662 440.776 645.768 465.708 638.803C450.622 629.541 452.956 625.186 467.082 618.197Z" fill="white"/>
<path d="M388.777 623.692C389.656 653.788 399.478 652.697 417.626 653.915H420.374C438.522 652.697 448.343 653.788 449.223 623.692C448.477 596.241 441.483 591.059 420.374 590.721H417.626C396.516 591.059 389.523 596.241 388.777 623.692Z" fill="white"/>
<path d="M373.343 570.115C394.395 595.13 385.707 620.944 369.222 618.197C383.347 625.186 385.681 629.541 370.596 638.803C395.528 645.768 399.445 656.662 363.727 684.138C329.382 708.866 300.533 708.866 295.038 680.017C290.917 644.299 304.655 631.935 301.907 616.823C297.786 585.226 279.591 571.039 285.422 555.003C296.412 524.781 331.121 527.613 373.343 570.115Z" stroke="#3F6E4F" stroke-width="3.41561"/>
<path d="M467.082 618.197C450.596 620.944 441.908 595.13 462.96 570.115C505.183 527.613 539.891 524.781 550.882 555.003C556.713 571.039 538.518 585.226 534.396 616.823C531.649 631.935 545.387 644.299 541.265 680.017C535.77 708.866 506.921 708.866 472.577 684.138C436.859 656.662 440.776 645.768 465.708 638.803C450.622 629.541 452.956 625.186 467.082 618.197Z" stroke="#3F6E4F" stroke-width="3.41561"/>
<path d="M388.777 623.692C389.656 653.788 399.478 652.697 417.626 653.915H420.374C438.522 652.697 448.343 653.788 449.223 623.692C448.477 596.241 441.483 591.059 420.374 590.721H417.626C396.516 591.059 389.523 596.241 388.777 623.692Z" stroke="#3F6E4F" stroke-width="3.41561"/>
</svg>
